<svg xmlns="http://www.w3.org/2000/svg"  viewBox="0 0 32 32" width="16px" height="16px" fill-rule="evenodd" clip-rule="evenodd" baseProfile="basic"><path fill="#f18f06" fill-rule="evenodd" d="M8.996,27.999v2.999	h14.001v-2.999H8.996z" clip-rule="evenodd"/><path fill="#706d67" fill-rule="evenodd" d="M6.997,18.997v-2h-2v-2	h-2v-2h2v-2h4v-8h4v-2h6v2h4v8h4v2h2v2h-2v2h-2v2H6.997z" clip-rule="evenodd"/><path fill="#b6b5b5" fill-rule="evenodd" d="M23.997,27.997h-16l-1,1	h-2v-4h-2v-2h2v-2h2v2h2v-6h2v-2h4v2h2v-2h4v2h2v6h2v-2h2v2h2v2h-2v4h-2L23.997,27.997z" clip-rule="evenodd"/><path fill="#706d67" fill-rule="evenodd" d="M14.997,24.997h2l1,1v2	h-4v-2L14.997,24.997z" clip-rule="evenodd"/><path fill="#fcc201" fill-rule="evenodd" d="M6.997,28.997v-2h18v2	H6.997z" clip-rule="evenodd"/><path fill="#e6e5e5" fill-rule="evenodd" d="M10.997,24.997v-8h4v2	l-1,1v6L10.997,24.997z" clip-rule="evenodd"/><path fill="#064678" fill-rule="evenodd" d="M14.997,24.997l-2,2v-8	h2V24.997z" clip-rule="evenodd"/><path fill="#589bd4" fill-rule="evenodd" d="M10.996,24.999v3.999	h4.001v-3.999H10.996z" clip-rule="evenodd"/><path fill="#e6e5e5" fill-rule="evenodd" d="M20.997,24.997v-8h-4v2	l1,1v6L20.997,24.997z" clip-rule="evenodd"/><path fill="#064678" fill-rule="evenodd" d="M16.997,24.997l2,2v-8	h-2V24.997z" clip-rule="evenodd"/><path fill="#589bd4" fill-rule="evenodd" d="M16.996,24.999v3.999	h4.001v-3.999H16.996z" clip-rule="evenodd"/><path fill="#e41e2f" fill-rule="evenodd" d="M10.996,10.999v1.999	h10.001v-1.999H10.996z" clip-rule="evenodd"/></svg>