<svg width="34" height="33" viewBox="0 0 34 33" fill="none" xmlns="http://www.w3.org/2000/svg">
<path d="M11.8095 32.7219C12.3214 32.5016 12.68 31.9926 12.68 31.4V27.512C12.68 27.3702 12.6915 27.2226 12.7095 27.0728C12.6994 27.0757 12.6901 27.0778 12.68 27.08C12.68 27.08 10.52 27.08 10.088 27.08C9.008 27.08 8.072 26.648 7.64 25.784C7.136 24.848 6.92 23.264 5.624 22.4C5.408 22.256 5.552 22.04 5.984 22.04C6.416 22.112 7.352 22.688 7.928 23.48C8.576 24.272 9.224 24.92 10.376 24.92C12.1666 24.92 13.1264 24.83 13.7038 24.5204C14.3763 23.5203 15.3073 22.76 16.28 22.76V22.742C12.199 22.611 9.59192 21.2545 8.378 19.16C5.7392 19.1902 3.44168 19.4516 2.13056 19.669C2.0888 19.4336 2.0528 19.1967 2.02184 18.9584C3.31568 18.7453 5.5088 18.4926 8.03024 18.4443C7.9496 18.2456 7.87976 18.0418 7.82072 17.833C5.2928 17.7049 3.1112 17.805 1.92608 17.9029C1.91168 17.6638 1.89224 17.4255 1.88936 17.1836C3.07664 17.0864 5.1992 16.9892 7.66232 17.1037C7.60544 16.7437 7.56872 16.3758 7.56872 15.9927C7.56872 14.7687 8.00072 13.4727 8.79272 12.3927C8.43272 11.1687 7.92872 8.57672 8.93672 7.64072C10.8807 7.64072 12.2487 8.57672 12.8967 9.15272C14.12 8.648 15.488 8.36 17 8.36C18.512 8.36 19.88 8.648 21.032 9.152C21.68 8.576 23.048 7.64 24.992 7.64C26.072 8.648 25.496 11.24 25.136 12.392C25.928 13.472 26.36 14.696 26.288 15.992C26.288 16.3405 26.2556 16.6767 26.2088 17.0065C28.7281 16.8826 30.9082 16.982 32.1157 17.0799C32.1142 17.3226 32.0919 17.5594 32.079 17.7992C30.8758 17.6998 28.641 17.5976 26.0605 17.7351C25.9964 17.977 25.9186 18.2125 25.8265 18.4407C28.3796 18.4738 30.6253 18.7208 31.981 18.9368C31.9501 19.1758 31.9141 19.4127 31.8723 19.6474C30.4957 19.4271 28.1492 19.1694 25.4794 19.1564C24.2806 21.2286 21.721 22.58 17.72 22.7377V22.76C19.592 22.76 21.32 25.568 21.32 27.512V31.4C21.32 31.9926 21.6786 32.5016 22.1905 32.7219C28.7864 30.5389 33.56 24.3181 33.56 17C33.56 7.86896 26.1318 0.440002 17 0.440002C7.86824 0.440002 0.440002 7.86896 0.440002 17C0.440002 24.3181 5.2136 30.5389 11.8095 32.7219Z" fill="#FFFFFF"/>
</svg>
