<svg width="34" height="25" viewBox="0 0 34 25" fill="none" xmlns="http://www.w3.org/2000/svg">
<path d="M28.97 2.75407C26.1041 0.447817 21.5703 0.05688 21.3763 0.0428169C21.0753 0.0175046 20.7884 0.186255 20.6647 0.464693C20.6534 0.481567 20.555 0.70938 20.4453 1.06375C22.3409 1.38438 24.6697 2.02844 26.7763 3.33625C27.1138 3.54438 27.2178 3.98875 27.0097 4.32625C26.8719 4.54844 26.6384 4.66938 26.3966 4.66938C26.2672 4.66938 26.135 4.63282 26.0169 4.55969C22.3944 2.3125 17.8719 2.2 17 2.2C16.1281 2.2 11.6028 2.3125 7.98313 4.55969C7.64563 4.77063 7.20125 4.66657 6.99313 4.32907C6.78219 3.98875 6.88625 3.54719 7.22375 3.33625C9.33032 2.03125 11.6591 1.38438 13.5547 1.06657C13.445 0.70938 13.3466 0.48438 13.3381 0.464693C13.2116 0.186255 12.9275 0.01188 12.6238 0.0428169C12.4297 0.05688 7.89594 0.447817 4.99063 2.785C3.47469 4.18844 0.440002 12.3897 0.440002 19.48C0.440002 19.6066 0.473752 19.7275 0.535628 19.8372C2.62813 23.5159 8.34032 24.4778 9.6425 24.52C9.64813 24.52 9.65657 24.52 9.665 24.52C9.89563 24.52 10.1122 24.4103 10.2472 24.2247L11.5634 22.4134C8.01125 21.4966 6.19719 19.9384 6.09313 19.8456C5.795 19.5841 5.76688 19.1284 6.03125 18.8303C6.29282 18.5322 6.74844 18.5041 7.04657 18.7656C7.08875 18.805 10.43 21.64 17 21.64C23.5813 21.64 26.9225 18.7938 26.9563 18.7656C27.2544 18.5069 27.7072 18.5322 27.9716 18.8331C28.2331 19.1313 28.205 19.5841 27.9069 19.8456C27.8028 19.9384 25.9888 21.4966 22.4366 22.4134L23.7528 24.2247C23.8878 24.4103 24.1044 24.52 24.335 24.52C24.3434 24.52 24.3519 24.52 24.3575 24.52C25.6597 24.4778 31.3719 23.5159 33.4644 19.8372C33.5263 19.7275 33.56 19.6066 33.56 19.48C33.56 12.3897 30.5253 4.18844 28.97 2.75407ZM12.32 16.6C10.9278 16.6 9.8 15.3119 9.8 13.72C9.8 12.1281 10.9278 10.84 12.32 10.84C13.7122 10.84 14.84 12.1281 14.84 13.72C14.84 15.3119 13.7122 16.6 12.32 16.6ZM21.68 16.6C20.2878 16.6 19.16 15.3119 19.16 13.72C19.16 12.1281 20.2878 10.84 21.68 10.84C23.0722 10.84 24.2 12.1281 24.2 13.72C24.2 15.3119 23.0722 16.6 21.68 16.6Z" fill="#FFFFFF"/>
</svg>
