<svg width="30" height="30" viewBox="0 0 30 30" fill="none" xmlns="http://www.w3.org/2000/svg">
<path d="M8.99766 0.600006C4.36686 0.600006 0.600006 4.37035 0.600006 9.00235V21.0023C0.600006 25.6332 4.37035 29.4 9.00235 29.4H21.0023C25.6332 29.4 29.4 25.6297 29.4 20.9977V8.99766C29.4 4.36686 25.6297 0.600006 20.9977 0.600006H8.99766ZM23.4 5.40001C24.0624 5.40001 24.6 5.93761 24.6 6.60001C24.6 7.26241 24.0624 7.80001 23.4 7.80001C22.7376 7.80001 22.2 7.26241 22.2 6.60001C22.2 5.93761 22.7376 5.40001 23.4 5.40001ZM15 7.80001C18.9708 7.80001 22.2 11.0292 22.2 15C22.2 18.9708 18.9708 22.2 15 22.2C11.0292 22.2 7.80001 18.9708 7.80001 15C7.80001 11.0292 11.0292 7.80001 15 7.80001ZM15 10.2C13.727 10.2 12.5061 10.7057 11.6059 11.6059C10.7057 12.5061 10.2 13.727 10.2 15C10.2 16.273 10.7057 17.4939 11.6059 18.3941C12.5061 19.2943 13.727 19.8 15 19.8C16.273 19.8 17.4939 19.2943 18.3941 18.3941C19.2943 17.4939 19.8 16.273 19.8 15C19.8 13.727 19.2943 12.5061 18.3941 11.6059C17.4939 10.7057 16.273 10.2 15 10.2Z" fill="#FFFFFF"/>
</svg>
