<svg width="34" height="34" viewBox="0 0 34 34" fill="none" xmlns="http://www.w3.org/2000/svg">
<path d="M17 0.440002C26.1462 0.440002 33.56 7.85384 33.56 17C33.56 26.1462 26.1462 33.56 17 33.56C7.85384 33.56 0.440002 26.1462 0.440002 17C0.440002 7.85384 7.85384 0.440002 17 0.440002ZM22.7125 23.75C23.017 22.8154 24.4441 13.5015 24.6205 11.6662C24.6738 11.1104 24.4981 10.741 24.1539 10.5762C23.7378 10.376 23.1214 10.4761 22.4065 10.7338C21.4258 11.0874 8.8892 16.4103 8.16488 16.7185C7.478 17.0101 6.82856 17.3283 6.82856 17.7891C6.82856 18.1131 7.0208 18.2953 7.55072 18.4846C8.10224 18.6812 9.49112 19.1024 10.3112 19.3285C11.101 19.5466 12.0003 19.3573 12.5043 19.0441C13.0386 18.7122 19.2039 14.5866 19.6467 14.2251C20.0888 13.8637 20.4416 14.3266 20.0802 14.6888C19.7187 15.0502 15.4866 19.1578 14.9286 19.7266C14.251 20.4171 14.732 21.1328 15.1863 21.4194C15.7054 21.7462 19.4386 24.2504 20.001 24.6522C20.5633 25.0539 21.1335 25.2361 21.6555 25.2361C22.1775 25.2361 22.4526 24.5485 22.7125 23.75Z" fill="#FFFFFF"/>
</svg>
